<?xml version="1.0" encoding="UTF-8"?>
<!-- Service Check icon: gear/cog (Atlas OS triangle stays Icon=atlas). -->
<svg xmlns="http://www.w3.org/2000/svg" viewBox="0 0 256 256" fill="none">
  <defs>
    <filter id="soft" x="-15%" y="-15%" width="130%" height="130%">
      <feGaussianBlur in="SourceGraphic" stdDeviation="1.5" result="b"/>
      <feMerge>
        <feMergeNode in="b"/>
        <feMergeNode in="SourceGraphic"/>
      </feMerge>
    </filter>
  </defs>
  <g filter="url(#soft)" fill="#f0f0f0">
    <path fill-rule="evenodd" d="M128 36c-4.2 0-8.2.5-12 1.4l-5.4-18.6a8 8 0 0 0-9.6-5.6l-19.2 5.6a8 8 0 0 0-5.5 9.8l5.4 18.6a88 88 0 0 0-10.4 6l-16.2-11.8a8 8 0 0 0-10.8 1.8l-11.8 16.2a8 8 0 0 0 1.8 10.8l16.2 11.8a88 88 0 0 0-6 10.4l-18.6-5.4a8 8 0 0 0-9.8 5.5l-5.6 19.2a8 8 0 0 0 5.6 9.6l18.6 5.4c.9 3.8 1.4 7.8 1.4 12s-.5 8.2-1.4 12l18.6 5.4a8 8 0 0 0 9.6 5.6l19.2-5.6a8 8 0 0 0 5.5-9.8l-5.4-18.6a88 88 0 0 0 10.4-6l16.2 11.8a8 8 0 0 0 10.8-1.8l11.8-16.2a8 8 0 0 0-1.8-10.8l-16.2-11.8a88 88 0 0 0 6-10.4l18.6 5.4a8 8 0 0 0 9.8-5.5l5.6-19.2a8 8 0 0 0-5.6-9.6l-18.6-5.4A88 88 0 0 0 128 36Zm0 44a48 48 0 1 1 0 96 48 48 0 0 1 0-96Z"/>
  </g>
</svg>
